<?xml version="1.0" encoding="UTF-8" standalone="no"?>
<svg width="73px" height="16px" viewBox="0 0 73 16" version="1.1" xmlns="http://www.w3.org/2000/svg" xmlns:xlink="http://www.w3.org/1999/xlink">
    <!-- Generator: Sketch 39.1 (31720) - http://www.bohemiancoding.com/sketch -->
    <title>logo-beast-regular</title>
    <desc>Created with Sketch.</desc>
    <defs></defs>
    <g id="Page-1" stroke="none" stroke-width="1" fill="none" fill-rule="evenodd">
        <g id="Artboard" transform="translate(-636.000000, -1325.000000)" fill="#000000">
            <g id="Group-3" transform="translate(320.000000, 1288.000000)">
                <g id="Group-2" transform="translate(251.000000, 35.000000)">
                    <path d="M129.423025,5.22891566 L129.423025,17.6947791 L132.78581,17.6947791 L132.78581,5.22891566 L137.369478,5.22891566 L137.369478,2.40160643 L124.839357,2.40160643 L124.839357,5.22891566 L129.423025,5.22891566 Z M110.249751,12.8592405 C110.270242,13.6845645 110.441169,14.405731 110.762537,15.0227577 C111.119523,15.7081694 111.601446,16.2721977 112.20832,16.7148594 C112.815195,17.1575212 113.514876,17.4823729 114.307383,17.6894244 C115.099891,17.8964758 115.917375,18 116.75986,18 C117.802257,18 118.719695,17.8786268 119.512203,17.6358768 C120.30471,17.3931269 120.968693,17.0539959 121.504171,16.6184739 C122.039648,16.1829519 122.443036,15.665331 122.714345,15.0655957 C122.985653,14.4658605 123.121306,13.816157 123.121306,13.1164659 C123.121306,12.2597012 122.939246,11.5564508 122.575121,11.0066934 C122.210996,10.4569361 121.77905,10.0178508 121.279271,9.68942436 C120.779492,9.36099791 120.27615,9.12182137 119.769231,8.97188755 C119.262312,8.82195373 118.866064,8.71842956 118.580476,8.66131191 C117.623755,8.41856193 116.849109,8.21865317 116.256513,8.06157965 C115.663918,7.90450613 115.199844,7.74743497 114.864278,7.59036145 C114.528711,7.43328793 114.303814,7.26193756 114.189579,7.07630522 C114.075344,6.89067288 114.018227,6.64792653 114.018227,6.3480589 C114.018227,6.01963245 114.089623,5.74832771 114.232417,5.53413655 C114.375211,5.31994538 114.557271,5.14145542 114.778602,4.99866131 C114.999932,4.8558672 115.246249,4.75591282 115.517557,4.69879518 C115.788866,4.64167754 116.060171,4.61311914 116.33148,4.61311914 C116.745583,4.61311914 117.127551,4.64881714 117.477397,4.72021419 C117.827242,4.79161124 118.137815,4.91298442 118.409124,5.08433735 C118.680432,5.25569028 118.89819,5.49129703 119.062403,5.79116466 C119.19956,6.04162431 119.289398,6.34686849 119.33192,6.70690382 C119.469364,6.69999709 122.471552,6.69999709 122.603497,6.69999705 C122.577025,5.91195856 122.410495,5.23418751 122.103903,4.66666667 C121.768337,4.04551229 121.314972,3.535031 120.743796,3.1352075 C120.172619,2.73538399 119.519346,2.44623025 118.783956,2.26773762 C118.048567,2.08924498 117.28106,2 116.481413,2 C115.796001,2 115.1106,2.09281478 114.425188,2.27844712 C113.739776,2.46407946 113.125771,2.7496634 112.583153,3.1352075 C112.040536,3.52075159 111.60145,4.00267448 111.265884,4.58099063 C110.930318,5.15930677 110.762537,5.84113842 110.762537,6.62650602 C110.762537,7.32619716 110.89462,7.92235363 111.158789,8.41499331 C111.422958,8.90763299 111.769229,9.31815989 112.197611,9.64658635 C112.625993,9.9750128 113.111486,10.2427477 113.654104,10.4497992 C114.196721,10.6568507 114.75361,10.8317708 115.324786,10.9745649 C115.881683,11.1316384 116.431432,11.2744304 116.97405,11.4029451 C117.516668,11.5314598 118.00216,11.6813914 118.430543,11.8527443 C118.858925,12.0240972 119.205196,12.2382852 119.469365,12.4953146 C119.733534,12.752344 119.865616,13.0879051 119.865616,13.502008 C119.865616,13.8875521 119.765662,14.2052643 119.56575,14.4551539 C119.365838,14.7050436 119.115952,14.9013826 118.816085,15.0441767 C118.516217,15.1869708 118.194935,15.2833554 117.852229,15.3333333 C117.509524,15.3833113 117.188242,15.4082999 116.888374,15.4082999 C116.445712,15.4082999 116.017336,15.3547529 115.603233,15.2476573 C115.189131,15.1405617 114.828581,14.976351 114.521573,14.7550201 C114.214566,14.5336892 113.96825,14.2445355 113.782618,13.8875502 C113.630435,13.5948912 113.540633,13.2494532 113.513212,12.8512292 C113.460509,12.8512296 110.270242,12.8512296 110.249751,12.8592405 Z M99.6987952,2.40160643 L93.9156627,17.6947791 L97.2998661,17.6947791 L98.4993307,14.2891566 L104.218206,14.2891566 L105.374833,17.6947791 L108.866131,17.6947791 L103.147256,2.40160643 L99.6987952,2.40160643 Z M99.37751,11.7831325 L101.369478,6.17135207 L101.412316,6.17135207 L103.340027,11.7831325 L99.37751,11.7831325 Z M81.5997323,2.40160643 L81.5997323,17.6947791 L90.1298527,17.6947791 L91.2008032,14.8674699 L84.9625167,14.8674699 L84.9625167,11.1191432 L90.2637217,11.1191436 L90.2637217,8.50602446 L84.9625167,8.5060241 L84.9625167,5.22891566 L92.9036145,5.22891566 L93.9745649,2.40160643 L81.5997323,2.40160643 Z M65,2.40160643 L65,17.6947791 L72.4109772,17.6947791 C73.096389,17.6947791 73.7639414,17.6091039 74.4136546,17.437751 C75.0633678,17.2663981 75.6416753,17.0022329 76.1485944,16.6452477 C76.6555135,16.2882624 77.0589008,15.8277583 77.3587684,15.2637216 C77.658636,14.6996848 77.8085676,14.0321324 77.8085676,13.2610442 C77.8085676,12.3043236 77.5765307,11.4868396 77.1124498,10.8085676 C76.6483689,10.1302956 75.9451185,9.65551229 75.0026774,9.38420348 C75.6880891,9.05577703 76.20571,8.63454072 76.5555556,8.12048193 C76.9054011,7.60642313 77.0803213,6.96385928 77.0803213,6.19277108 C77.0803213,5.47880054 76.9625179,4.87907427 76.7269076,4.3935743 C76.4912973,3.90807432 76.159306,3.51896621 75.7309237,3.22623829 C75.3025414,2.93351036 74.7884903,2.72289221 74.188755,2.59437751 C73.5890198,2.46586281 72.9250371,2.40160643 72.1967871,2.40160643 L65,2.40160643 Z M68.3627845,8.59170013 L68.3627845,5.01472557 L71.5113788,5.01472557 C71.8112465,5.01472557 72.1004002,5.03971416 72.3788487,5.0896921 C72.6572972,5.13967004 72.9036134,5.22891502 73.1178046,5.35742972 C73.3319957,5.48594442 73.5033461,5.66443438 73.6318608,5.89290495 C73.7603755,6.12137553 73.8246319,6.41409906 73.8246319,6.77108434 C73.8246319,7.41365783 73.6318627,7.87773173 73.2463186,8.16331995 C72.8607745,8.44890817 72.3681422,8.59170013 71.768407,8.59170013 L68.3627845,8.59170013 Z M68.3627845,15.08166 L68.3627845,10.8835341 L72.0254351,10.8835341 C72.753685,10.8835341 73.3391321,11.0513147 73.7817938,11.3868809 C74.2244556,11.722447 74.4457831,12.2829055 74.4457831,13.0682731 C74.4457831,13.4680966 74.3779569,13.7965181 74.2423025,14.0535475 C74.1066481,14.3105769 73.9245884,14.5140555 73.6961178,14.6639893 C73.4676472,14.8139231 73.2034821,14.9210171 72.9036145,14.9852744 C72.6037468,15.0495318 72.2896045,15.08166 71.961178,15.08166 L68.3627845,15.08166 Z" id="logo-beast-regular"></path>
                </g>
            </g>
        </g>
    </g>
</svg>